<svg xmlns="http://www.w3.org/2000/svg" width="151" height="84" fill="none" viewBox="0 0 151 84"><path fill="url(#a)" fill-rule="evenodd" d="M53.604 32h5.954c-.243.21-.44.474-.552.85a12.3 12.3 0 0 0-2.462.366c-.919.235-1.717.803-1.717 1.78 0 .316.082.615.222.875l-.008-.205.123-.064c.111-.06.23-.11.346-.162.297-.128.605-.235.914-.324 1.812-.53 4.48-.53 6.292 0 .309.09.617.2.914.324.115.047.235.102.346.162l.123.064-.008.205c.14-.26.223-.56.223-.875 0-.977-.8-1.553-1.718-1.78a13 13 0 0 0-2.618-.37c.18-.24.46-.394.74-.543.178-.098.355-.192.515-.303h4.303c.585 0 1.063.495 1.063 1.101v17.793c0 .606-.478 1.102-1.063 1.102H53.604c-.585 0-1.063-.496-1.063-1.102V33.101c-.004-.606.474-1.101 1.063-1.101m6.855 8.664c1.512-.892 2.203-1.92 2.29-3.623-.614 2.082-1.511 3.09-2.29 3.623m-5.097-2.663c.214 2.987 3.327 3.24 4.208 4.93.881-1.69 3.994-1.947 4.208-4.93l.099-2.203c-2.129-1.148-6.481-1.148-8.61 0z" clip-rule="evenodd"/><path fill="url(#b)" fill-rule="evenodd" d="M37.33 32h11.934c.584 0 1.062.495 1.062 1.101v17.793c0 .606-.478 1.102-1.062 1.102H37.33c-.585 0-1.062-.496-1.062-1.102V33.101c0-.606.477-1.101 1.062-1.101m6.922 13.687c1.512-.892 2.203-1.92 2.29-3.623-.614 2.083-1.511 3.09-2.29 3.623m-5.159-2.5c.214 2.987 3.327 3.243 4.208 4.929.882-1.69 3.994-1.946 4.209-4.93l.098-2.202c-2.128-1.148-6.48-1.148-8.61 0zm3.644-5.152a12.3 12.3 0 0 0-2.462.367c-.918.235-1.717.802-1.717 1.78 0 .316.082.614.222.875l-.008-.205.124-.064c.11-.06.23-.111.346-.162.296-.128.605-.235.914-.325 1.811-.529 4.48-.529 6.291 0 .31.09.618.2.914.325.116.047.235.102.346.162l.124.064-.009.205c.14-.26.223-.56.223-.875 0-.978-.799-1.554-1.717-1.78a13 13 0 0 0-2.619-.371c.181-.24.461-.393.741-.542.618-.338 1.219-.666 1.293-1.61-1.145.15-.568.095-1.696.816-.544.298-1.1.602-1.31 1.34" clip-rule="evenodd"/><path fill="url(#c)" fill-rule="evenodd" d="M21.062 32h1.717l.041.935c.215 2.987 3.328 3.24 4.209 4.93.88-1.69 3.994-1.947 4.208-4.93l.041-.935h1.717c.585 0 1.062.495 1.062 1.101v17.793c0 .606-.477 1.101-1.062 1.101h-1.713l.054-1.182c-2.13-1.148-6.481-1.148-8.61 0l.053 1.182h-1.717C20.478 52 20 51.5 20 50.895V33.1c0-.606.478-1.101 1.062-1.101m9.228 0c-.605 1.78-1.425 2.68-2.145 3.171 1.37-.81 2.067-1.737 2.248-3.171zm-3.821 15.868a12.3 12.3 0 0 0-2.463.367c-.918.235-1.717.803-1.717 1.78 0 .316.083.615.223.875l-.009-.205.124-.064c.111-.06.23-.11.346-.162a8 8 0 0 1 .914-.324c1.812-.53 4.48-.53 6.292 0 .309.09.617.2.914.324.115.047.235.102.346.162l.123.064-.008.205c.14-.26.222-.56.222-.875 0-.977-.799-1.553-1.717-1.78a13 13 0 0 0-2.619-.371c.182-.239.462-.393.742-.542.617-.337 1.218-.666 1.293-1.609-1.145.15-.569.094-1.697.815-.543.295-1.1.598-1.31 1.34" clip-rule="evenodd"/><path fill="#fff" fill-rule="evenodd" d="M93.973 43.502c3.31 0 5.715-2.59 5.715-5.753v-.03C99.688 34.556 97.312 32 94 32c-3.31 0-5.715 2.59-5.715 5.749v.03c0 3.167 2.376 5.723 5.686 5.723M94 41.244c-1.902 0-3.249-1.587-3.249-3.495v-.03c0-1.908 1.318-3.461 3.22-3.461s3.25 1.587 3.25 3.495v.03c0 1.908-1.318 3.461-3.22 3.461m-15.877 2.258c2.392 0 3.862-1.54 3.862-3.636v-.03c0-2.066-1.425-2.86-2.882-3.116l2.714-2.684v-1.844h-7.251v2.096h4.216l-2.561 2.667.366 1.558h.98c1.318 0 2.1.508 2.1 1.413v.03c0 .827-.63 1.348-1.52 1.348-1.086 0-1.852-.478-2.59-1.336l-1.617 1.614c.918 1.126 2.252 1.92 4.183 1.92m24.459-.191h-2.405l4.599-11.2h2.178l4.591 11.2h-2.466l-.98-2.493h-4.538zm3.252-8.259-1.424 3.607h2.849zm7.371 8.258h2.363v-3.397l1.24-1.336 3.327 4.733h2.833l-4.567-6.402 4.369-4.716h-2.85l-4.352 4.861v-4.86h-2.363zm18.792-3.286c0 2.21-1.626 3.448-3.94 3.448a6.7 6.7 0 0 1-4.55-1.78l1.396-1.732c.967.823 1.976 1.349 3.203 1.349.968 0 1.548-.397 1.548-1.05v-.03c0-.62-.366-.935-2.161-1.413-2.162-.572-3.558-1.195-3.558-3.402v-.03c0-2.014 1.565-3.35 3.755-3.35 1.565 0 2.899.508 3.986 1.413l-1.227 1.844c-.947-.683-1.882-1.097-2.787-1.097-.906 0-1.38.427-1.38.969v.034c0 .73.461.969 2.314 1.46 2.174.588 3.401 1.4 3.401 3.337zM76.296 52a2.85 2.85 0 0 0 1.914-.738v-2.015h-1.947v.884h.992v.661c-.251.188-.568.278-.926.278-.795 0-1.355-.623-1.355-1.473v-.013c0-.79.568-1.447 1.285-1.447.519 0 .828.171 1.169.47l.622-.777c-.465-.41-.956-.636-1.758-.636-1.355 0-2.347 1.08-2.347 2.403v.013c-.004 1.374.955 2.39 2.35 2.39m9.626-.082h-1.004l1.915-4.677h.91l1.919 4.677h-1.03l-.408-1.041H86.33zm1.36-3.448-.597 1.506h1.194zm9.227 3.448h.963v-3.013l1.248 1.968h.029l1.26-1.985v3.03h.98v-4.643h-1.062l-1.178 1.963-1.178-1.963h-1.06zm11.747-4.643h.984v4.643h-.984zm8.252 4.643h.976v-2.953l2.17 2.953h.836v-4.643h-.972v2.86l-2.1-2.86h-.91zm15.276-.656a2.85 2.85 0 0 1-1.914.738c-1.392 0-2.356-1.016-2.356-2.39v-.013c0-1.323.993-2.403 2.347-2.403.803 0 1.293.226 1.759.636l-.622.777c-.342-.299-.65-.47-1.169-.47-.717 0-1.285.658-1.285 1.447v.013c0 .85.564 1.473 1.359 1.473.358 0 .675-.09.926-.278v-.661h-.992v-.884h1.947z" clip-rule="evenodd"/><defs><linearGradient id="a" x1="65.908" x2="52.766" y1="32.784" y2="50.567" gradientUnits="userSpaceOnUse"><stop stop-color="#f8b900"/><stop offset="1" stop-color="#e67508"/></linearGradient><linearGradient id="b" x1="49.639" x2="36.497" y1="32.784" y2="50.567" gradientUnits="userSpaceOnUse"><stop stop-color="#f8b900"/><stop offset="1" stop-color="#e67508"/></linearGradient><linearGradient id="c" x1="33.37" x2="20.228" y1="32.784" y2="50.567" gradientUnits="userSpaceOnUse"><stop stop-color="#f8b900"/><stop offset="1" stop-color="#e67508"/></linearGradient></defs></svg>