<svg xmlns="http://www.w3.org/2000/svg" width="151" height="84" fill="none" viewBox="0 0 151 84"><g clip-path="url(#a)"><path fill="url(#b)" d="M37.816 33.21c1.675 1.255 2.93 1.757 5.024 2.762 1.506.67 4.353 1.758 6.53 2.846-2.763-1.674-6.028-3.767-6.028-7.45 0-5.777 14.902-5.359 22.019 0 0 0-4.605-6.782-14.903-6.782-6.781 0-12.307 3.181-14.149 5.86l.084.168c0-.084-.251 1.34 1.423 2.595"/><path fill="url(#c)" d="M43.426 53.052c0-3.35 2.679-5.358 5.19-6.865-3.014 1.507-8.12 3.432-9.293 4.102-1.172.67-1.842.753-2.344 1.758-.335.586-.502 1.507-.586 2.093 1.926 2.68 7.368 5.693 14.149 5.693 10.298 0 14.902-6.781 14.902-6.781-7.032 5.358-22.018 5.776-22.018 0"/><path fill="url(#d)" d="M39.323 50.288c1.172-.67 6.28-2.596 9.293-4.102 2.26-1.423 4.438-2.512 4.438-3.935 0-1.256-1.675-2.26-3.6-3.433-2.177-1.088-5.108-2.176-6.53-2.846-2.094-1.005-3.35-1.507-5.024-2.763s-1.423-2.595-1.423-2.595l-.168-.168c-.418.586-.67 1.256-.67 1.758 0 3.265 6.447 4.94 6.447 9.963 0 4.94-6.446 6.782-6.446 9.963 0 .586.25 1.256.753 1.926.084-.587.167-1.507.502-2.093.586-.921 1.256-1.005 2.428-1.675"/><path fill="url(#e)" d="M51.212 40.827s.92.587 1.088 1.089-.419 1.34-.92 1.674c-.503.334-1.257.419-1.34.251-.252-.503 1.004-.837.837-1.59s-.67-1.089-1.005-1.34c-.251-.335-.586-.67-.419-.753.084-.252 1.759.67 1.759.67"/><path fill="#fff" fill-rule="evenodd" d="m98.463 39.914-.008.001c-.033-.056-.03-.11-.027-.164l.002-.042v-.562q0-.282-.002-.563c0-.116 0-.232-.01-.346a.95.95 0 0 0-.157-.48c-.107-.146-.243-.237-.432-.23a3 3 0 0 1-.196-.005l-.048-.002c-.24-.008-.476-.035-.697-.14q-.009-.002-.025.004l-.015.004-.01.002v8.131l.012.08.008.047.048.001c.216.008.424.016.63-.019q.203-.034.398-.095c.3-.093.448-.316.484-.62.01-.088.01-.176.01-.266v-.02l.001-2.99v-.013q.001-.098.005-.195l.001-.044c.204-.104.412-.143.62-.173.326-.049.653-.046.974.03.302.07.493.238.532.565.037.305.07.609.073.915l.003.864q0 .52.003 1.037.003.174.034.344c.06.315.251.525.551.628.12.041.252.062.378.078.204.024.405.015.613-.036l.005-.05q.005-.05.006-.097v-.694l.003-1.89v-.034l.001-1.224c.002-.377-.109-.724-.277-1.056a1.34 1.34 0 0 0-.498-.53 2.16 2.16 0 0 0-1.082-.33 8 8 0 0 0-.756.006c-.367.021-.734.053-1.088.164a.2.2 0 0 1-.05.008zm-24.654.082V37.47q.063.015.123.034.138.041.268.064.125.018.253.024.087.005.173.014.153.014.303.036c.187.03.3.148.37.316.062.146.082.301.093.458q.005.106.004.214v6.16a.25.25 0 0 1-.058.168 1.5 1.5 0 0 1-.662.496c-.26.11-.535.155-.812.192-.548.074-1.1.094-1.65.043a3.8 3.8 0 0 1-1.073-.24 1.95 1.95 0 0 1-1.144-1.154 3.6 3.6 0 0 1-.227-.992 5.5 5.5 0 0 1-.013-1.059c.036-.364.12-.711.27-1.044.191-.423.494-.746.886-.988a2.85 2.85 0 0 1 1.144-.41q.57-.08 1.14 0 .254.035.487.144c.022.01.044.019.076.03zm-.009 4.132.003-.026a1 1 0 0 0 .008-.102q0-1.316-.004-2.635a.5.5 0 0 0-.015-.116l-.013-.006q-.048-.023-.088-.035a3 3 0 0 0-1.053-.087c-.443.05-.983.281-1.173.957-.086.306-.1.617-.077.93.012.157.052.308.11.455.147.374.415.61.801.723.334.098.672.108 1.012.071l.039-.004a1.4 1.4 0 0 0 .447-.096zm17.47 1.406c-.008.204-.007.398-.007.59v1.833l-.025.005q-.018.004-.027.001c-.24-.117-.498-.13-.757-.141a3 3 0 0 0-.203-.005.46.46 0 0 1-.344-.155.7.7 0 0 1-.184-.36 3 3 0 0 1-.044-.425q-.007-.375-.004-.75v-1.534q.003-1.924-.002-3.848c0-.153.041-.271.147-.382.216-.23.48-.378.78-.463.202-.056.41-.093.62-.123a7.4 7.4 0 0 1 1.632-.042c.367.03.726.101 1.07.239q.825.325 1.148 1.152c.135.345.206.705.236 1.072.027.325.033.654.006.98a3 3 0 0 1-.325 1.173 2.1 2.1 0 0 1-.75.82c-.458.293-.959.45-1.498.483a4.8 4.8 0 0 1-1.081-.043 6 6 0 0 1-.238-.046zm.007-1.35.052.02.068.024c.15.04.303.057.456.075l.168.02c.407.056.768-.052 1.108-.264a.9.9 0 0 0 .331-.352q.086-.164.144-.338c.09-.282.098-.576.086-.87a1.56 1.56 0 0 0-.258-.785.98.98 0 0 0-.516-.413c-.264-.092-.537-.164-.819-.144a12 12 0 0 0-.523.058l-.188.023a.3.3 0 0 0-.074.026l-.01.004-.012.006-.011.004c-.021.162-.024 2.65-.002 2.907m-33.749-.562c-.007.2.088.334.237.435.126.085.268.137.416.165.133.026.27.046.404.05a8 8 0 0 0 1.427-.073q.465-.065.93-.123l.085-.002h.046l.008.04q.009.037.012.076c.008.24-.013.476-.085.707a.99.99 0 0 1-.648.681 2.8 2.8 0 0 1-.82.154c-.45.022-.899.024-1.346-.038a4 4 0 0 1-1.023-.27 2.05 2.05 0 0 1-1.181-1.278 4 4 0 0 1-.194-1 5.5 5.5 0 0 1 .07-1.465 2.8 2.8 0 0 1 .286-.806q.21-.382.575-.625c.352-.233.741-.37 1.156-.433a6 6 0 0 1 1.447-.038c.292.026.578.089.852.2q.78.311 1.03 1.113c.13.416.154.843.12 1.273a1.1 1.1 0 0 1-.105.371.9.9 0 0 1-.566.498q-.315.094-.64.122-.447.043-.898.03a4.6 4.6 0 0 0-1.356.142l-.022.005a.44.44 0 0 0-.217.089m-.04-1.172h.007q.023 0 .043-.008a2 2 0 0 1 .677-.139l.337-.019.357-.02c.2-.01.386-.063.567-.15.27-.132.407-.564.04-.801a1.6 1.6 0 0 0-.41-.184 1.54 1.54 0 0 0-1.096.065.93.93 0 0 0-.405.333c-.16.242-.212.619-.124.923zm25.443.59v-.347l.016-.002-.009-.2v-.003l-.016-.368a2.9 2.9 0 0 0-.333-1.17 1.6 1.6 0 0 0-.208-.301 2.34 2.34 0 0 0-1.188-.755 4.8 4.8 0 0 0-1.457-.154c-.452.02-.892.1-1.313.274a2.16 2.16 0 0 0-.817.562 2.5 2.5 0 0 0-.54.952c-.133.443-.19.892-.123 1.353q.009.065.014.13l.005.053q.052.54.21 1.059c.094.3.252.557.47.782.257.267.565.443.92.542a5.8 5.8 0 0 0 1.902.19q.533-.03 1.034-.222c.68-.262 1.097-.762 1.3-1.448q.135-.453.133-.927m-1.643-1.081c.103.272.133.553.122.838.009.21-.013.41-.071.609-.13.438-.433.681-.863.776-.4.088-.8.054-1.192-.053-.382-.104-.584-.384-.685-.745a3.2 3.2 0 0 1-.089-1.093c.012-.176.07-.346.143-.508a.86.86 0 0 1 .405-.416c.323-.168.67-.211 1.03-.193.162.008.324.032.48.086q.525.18.72.699m33.061-.758c-.047-.374.004-.704.192-1.004.149-.243.386-.358.651-.42.117-.028.242-.04.363-.042a15 15 0 0 1 1.573.034c.399.035.78.139 1.13.327.421.227.69.588.852 1.033.101.276.155.566.159.86q.011.826.003 1.655c-.005.253-.055.5-.136.74-.213.645-.662 1.03-1.318 1.181a3.4 3.4 0 0 1-.79.084 88 88 0 0 0-1.328 0 3 3 0 0 1-.608-.073 1.7 1.7 0 0 1-.643-.3c-.301-.223-.458-.536-.519-.896a2.75 2.75 0 0 1 .081-1.213q.18-.625.773-.899c.284-.13.583-.184.891-.204q.174-.009.347-.01.113 0 .225-.004c.293-.007.586-.015.875-.069a1.5 1.5 0 0 0 .293-.087.6.6 0 0 0 .169-.11.327.327 0 0 0 .018-.462.6.6 0 0 0-.176-.133 1.7 1.7 0 0 0-.327-.116 4.8 4.8 0 0 0-1.299-.1c-.374.02-.746.06-1.112.142l-.207.051h-.001zm3.351 1.695h-.01q-.02.002-.027.008c-.321.258-.684.38-1.097.377-.155 0-.312.02-.467.045a1.1 1.1 0 0 0-.437.161.35.35 0 0 0-.164.368c.022.17.116.294.267.359.106.045.221.074.333.09.319.045.639.043.959.031q.082-.003.161-.02c.274-.056.413-.2.463-.474.056-.3.051-.604.045-.92l-.001-.03zM64.41 41.34l.006-.036c.121-.044.24-.06.357-.075l.113-.016c.283-.043.567-.078.854-.06a1.3 1.3 0 0 1 .493.121c.18.088.31.227.366.419.026.09.03.188.03.282v2.697q0 .174.037.344a.65.65 0 0 0 .43.506q.143.051.293.087c.195.048.393.045.592.042h.1q.039-.003.079-.01l.02-.003.018-.003c.026-.07.024-.137.023-.202l-.002-.05V41.87c0-.116-.001-.232-.012-.347-.054-.621-.342-1.096-.89-1.405a3 3 0 0 0-.314-.147 3.5 3.5 0 0 0-1.073-.233 9 9 0 0 0-2.078.076c-.25.04-.494.1-.72.221a.54.54 0 0 0-.304.513q.004 1.716.003 3.434v1.47q.001.064.008.127v.01l.004.039c.177.032.523.04.701.004q.202-.038.395-.104c.262-.09.406-.288.459-.553a1.5 1.5 0 0 0 .026-.284q.002-.89-.003-1.778-.004-.46-.01-.919v-.001l-.007-.613q0-.017.005-.039m44.171-.03-.006.032-.004.018-.001.017.008.22q.012.237.013.473.007 1.297 0 2.595 0 .175-.036.345a.68.68 0 0 1-.446.518 1.7 1.7 0 0 1-.516.116 5 5 0 0 1-.383.005h-.107a.2.2 0 0 1-.054-.01l-.027-.006c-.022-.068-.02-.134-.019-.199l.001-.027v-3.905l.001-.294c.002-.229.004-.458-.003-.687-.007-.218.089-.362.267-.469.165-.1.348-.154.534-.196.294-.07.591-.105.89-.12.436-.027.871-.04 1.308-.009a4.2 4.2 0 0 1 1.079.207c.194.067.378.154.548.27.419.285.656.683.73 1.18q.034.243.034.489.002 1.748 0 3.5v.016l.001.05a.4.4 0 0 1-.025.2c-.383.029-.759.023-1.123-.124-.25-.102-.38-.3-.424-.56a1.5 1.5 0 0 1-.019-.263l.001-1.35.001-1.348v-.03a1 1 0 0 0-.01-.174.7.7 0 0 0-.393-.516 1.3 1.3 0 0 0-.493-.121 4 4 0 0 0-.833.056q-.161.022-.321.052l-.081.014a.3.3 0 0 0-.059.021zm-20.307-.545c.114-.327.123-.664.074-1.019l-.025-.002-.025-.003-.054-.004h-.545q-.636-.001-1.274.001c-.195 0-.392.03-.584.08-.74.2-1.164.689-1.32 1.43-.036.174-.045.35-.045.528v2.819c0 .08.001.164.011.244a.715.715 0 0 0 .584.65l.083.017c.291.062.583.123.85.266q.007.003.025-.001l.029-.004.001-.038q.004-.09.005-.177V42.46c0-.113 0-.226.009-.34q.011-.163.047-.321a.63.63 0 0 1 .339-.438q.2-.107.428-.123.166-.01.334-.017l.216-.01.088-.003c.066-.002.133-.003.199-.015.257-.043.46-.168.55-.427m15.55-1.106.091.033h.001c.065.024.122.046.18.06q.131.034.262.044.215.02.43.018c.25-.004.408.124.514.334.069.137.091.286.104.436q.009.132.007.265v.957l-.002 2.865q0 .184-.037.366a.64.64 0 0 1-.424.484 2 2 0 0 1-.598.123 2.7 2.7 0 0 1-.505-.003l-.011-.03q-.01-.023-.011-.04zm-.046-1.152c.001.476.384.866.852.852.383.022.84-.305.847-.837a.85.85 0 0 0-.852-.856c-.514 0-.848.451-.847.84" clip-rule="evenodd"/></g><defs><linearGradient id="b" x1="50.834" x2="50.834" y1="38.789" y2="24.624" gradientUnits="userSpaceOnUse"><stop stop-color="#161b60"/><stop offset=".035" stop-color="#14266b"/><stop offset=".187" stop-color="#0e4f93"/><stop offset=".342" stop-color="#0971b4"/><stop offset=".499" stop-color="#058cce"/><stop offset=".659" stop-color="#029fe0"/><stop offset=".824" stop-color="#01aaeb"/><stop offset="1" stop-color="#00aeef"/></linearGradient><linearGradient id="c" x1="50.919" x2="50.919" y1="46.131" y2="59.778" gradientUnits="userSpaceOnUse"><stop stop-color="#4e0900"/><stop offset=".092" stop-color="#6d2505"/><stop offset=".24" stop-color="#984b0c"/><stop offset=".391" stop-color="#bc6b11"/><stop offset=".541" stop-color="#d78415"/><stop offset=".693" stop-color="#eb9619"/><stop offset=".845" stop-color="#f7a01a"/><stop offset="1" stop-color="#fba41b"/></linearGradient><linearGradient id="d" x1="44.346" x2="44.346" y1="54.124" y2="30.423" gradientUnits="userSpaceOnUse"><stop stop-color="#660308"/><stop offset=".438" stop-color="#de1a23"/><stop offset=".624" stop-color="#de1a23"/><stop offset="1" stop-color="#660308"/></linearGradient><linearGradient id="e" x1="50.869" x2="50.869" y1="43.95" y2="40.047" gradientUnits="userSpaceOnUse"><stop stop-color="#de1a22"/><stop offset="1" stop-color="#f9d7d8"/></linearGradient><clipPath id="a"><path fill="#fff" d="M35.64 24h83.72v36H35.64z"/></clipPath></defs></svg>