<svg xmlns="http://www.w3.org/2000/svg" width="151" height="84" fill="none" viewBox="0 0 151 84"><g fill="#fff" clip-path="url(#a)"><path d="M38.594 39.693h2.414v1.974l3.824.101V30.705c0-.12-.06-.221-.161-.221H41.17c-.101 0-.162.08-.162.221v5.24h-2.414v-5.24c0-.12-.06-.221-.161-.221h-3.461c-.1 0-.161.08-.161.221v10.821l3.783.101zm15.091-9.028c-.04-.12-.1-.161-.18-.161H49.74c-.08 0-.14.04-.18.161l-3.2 11.144 10.524.282zm-3.079 9.37.986-6.307.966 6.307zm21.068 1.895 1.67-2.439 1.268 3.043 3.924.1-2.898-6.468 3.722-5.44c.101-.142.04-.262-.1-.262h-3.944c-.08 0-.16.06-.18.12l-3.442 5.542v-5.44c0-.122-.06-.223-.16-.223h-3.22c-.1 0-.161.081-.161.222v11.668l3.541.1zm18.593-1.35c0-5.804-6.52-3.729-6.52-6.026 0-.665.564-.947 1.308-.947.885 0 1.77.403 2.636 1.31.04.06.12.08.181.04.02-.02.04-.04.04-.06l1.771-2.459a.244.244 0 0 0-.02-.302C88.436 30.665 86.967 30 85.196 30c-2.415 0-5.01 1.189-5.01 4.998 0 6.085 6.6 3.667 6.6 6.166 0 .765-.624 1.148-1.51 1.148-1.106 0-2.213-.564-3.32-2.075-.06-.08-.16-.101-.221 0l-1.73 2.458 9.799.262a6.1 6.1 0 0 0 .463-2.378m8.028-9.914c-.04-.12-.1-.161-.181-.161h-3.782c-.081 0-.142.04-.182.161l-3.52 12.292 11.188.282zm-3.078 9.37 1.006-6.307.965 6.307zm13.602-2.881.986 6.307 4.084.1 3.582-12.836c.041-.14-.02-.241-.121-.241h-3.36c-.101 0-.161.06-.181.201l-1.791 7.456-1.449-7.456c-.019-.1-.08-.201-.181-.201h-3.138c-.101 0-.162.08-.181.201l-1.45 7.456-1.79-7.456c-.021-.12-.081-.201-.181-.201h-3.361c-.101 0-.161.08-.12.241l3.5 12.575 4.166.1zm-42.316 3.99c0-.02-.02-.06-.04-.06s-.04 0-.06.02a2.5 2.5 0 0 1-2.134 1.108c-1.85 0-2.736-1.854-2.736-4.313 0-2.236.724-4.211 2.776-4.211.846-.04 1.63.383 2.093 1.068.02.02.06.04.08.02s.02-.02.02-.04v-4.111a.25.25 0 0 0-.14-.222 6.9 6.9 0 0 0-2.213-.363c-4.105 0-6.741 3.607-6.741 8.162-.02 1.35.241 2.68.764 3.909l8.33.222zm-27.305 4.715c0 .12.06.201.16.201h3.482c.1 0 .16-.08.16-.201v-3.486l-3.823-.101zm-6.037.201h3.46c.101 0 .182-.08.182-.201V42.19L33 42.111v3.748c0 .12.06.201.161.201m10.544 0h3.48c.101 0 .162-.08.182-.16l.443-1.935h3.903l.443 1.934c.02.101.1.161.181.161h3.481c.12 0 .161-.1.12-.262l-.885-3.143-10.523-.282-.986 3.405c-.02.182.04.282.16.282m30.244-.14c.02.08.1.14.18.14h3.643c.12 0 .181-.1.12-.262l-1.166-2.579-3.924-.1zm-7.465.14h3.22c.1 0 .16-.08.16-.201v-2.801l-3.541-.1v2.88c0 .142.06.222.16.222m11.45-2.095a6.6 6.6 0 0 0 5.231 2.6c2.073 0 4.005-1.008 4.85-3.023l-9.8-.262-.28.403a.24.24 0 0 0 0 .282m10.382 2.095h3.48c.102 0 .182-.08.202-.16l.443-1.935h3.904l.442 1.934c.02.101.1.161.201.161h3.461c.121 0 .161-.1.121-.262l-.564-1.974-11.187-.282-.644 2.256c-.04.162.04.262.14.262m19.982-.18c.02.1.08.18.181.18h2.958q.15 0 .181-.18l.483-1.734-4.085-.1zm-5.695.18h2.958c.101 0 .161-.08.181-.18l.302-1.875-4.165-.1.563 1.994c0 .101.06.161.161.161m-40.203.585c.724 0 1.449-.1 2.133-.323.1-.04.16-.12.16-.221v-3.184l-8.33-.222c1.067 2.418 3.18 3.95 6.037 3.95m-24.166 4.272h-1.308v-.605c0-.1-.06-.16-.181-.16h-.262c-.12 0-.181.06-.181.16v2.68c0 .101.06.162.181.162h.282c.12 0 .18-.06.18-.162v-.785h-.381V51.4h1.67v1.692c0 .605-.362.907-1.107.907h-1.066c-.745 0-1.107-.302-1.107-.907v-2.881c0-.605.362-.907 1.107-.907h1.066c.745 0 1.107.302 1.107.907zm14.045 3.063-.161-.705h-1.167l-.161.705H49.48l1.247-4.675h1.61l1.248 4.675zm-1.107-1.612h.765l-.363-1.693zm14.97 1.612h-1.187v-4.675h1.43l.804 2.499.785-2.5H69.4v4.676h-1.167v-2.962l-.603 1.974h-.906l-.604-1.954zm14.93-4.675h1.33v4.675h-1.33zm15.193 0h1.207v4.675h-1.126l-1.087-2.459v2.459h-1.208v-4.675h1.127l1.087 2.499zm16.117 1.612h-1.307v-.605c0-.1-.061-.16-.181-.16h-.282c-.121 0-.181.06-.181.16v2.68c0 .101.06.162.181.162h.261c.121 0 .182-.06.182-.162v-.785h-.383V51.4h1.71v1.692c0 .605-.362.907-1.106.907h-1.067c-.744 0-1.107-.302-1.107-.907v-2.881c0-.605.363-.907 1.107-.907h1.067c.744 0 1.106.302 1.106.907z"/></g><defs><clipPath id="a"><path fill="#fff" d="M33 30h84.532v24H33z"/></clipPath></defs></svg>