<svg xmlns="http://www.w3.org/2000/svg" width="151" height="84" fill="none" viewBox="0 0 151 84"><g clip-path="url(#a)"><path fill="url(#b)" d="M58.138 67.829h.411v-2.463l2.442 2.602v-3.434h-.41v2.44l-2.443-2.602zm-2.819 0h1.746v-.382H55.72V66.2h1.3v-.382h-1.3v-.925h1.346v-.381H55.32zm8.503-2.925h-.776v2.925h-.411v-2.925h-.776v-.382h1.951v.382zm.936 2.925h1.746v-.382h-1.347V66.2h1.301v-.382h-1.3v-.925h1.346v-.381h-1.746zm4.805-2.359a.9.9 0 0 1-.788.925l1.027 1.434h-.49l-.96-1.399h-.17v1.399h-.411v-3.307h.49c.286 0 .605 0 .856.15a.9.9 0 0 1 .445.798m-1.267-.578h-.103v1.191h.126c.41 0 .867-.08.867-.601 0-.509-.48-.59-.89-.59m3.32.012h.777v-.382H70.44v.382h.776v2.925h.411zm4.155 2.925-.376-.833h-1.496l-.376.833h-.434l1.552-3.445 1.552 3.445zm-1.118-2.532-.582 1.341h1.164zm2.83-.763h-.41v3.306h.41zm1.461 3.295h-.41v-3.457l2.441 2.601v-2.44h.411v3.435l-2.442-2.602zm5.204.07.982-2.255h.011l.377 2.185h.422l-.662-3.445-1.118 2.6-1.119-2.6-.662 3.445h.423l.376-2.185h.012zm4.714-.07h-1.746v-3.307h1.746v.382h-1.347v.925h1.313v.381h-1.301v1.249h1.346zm1.118 0h.411v-2.463l2.443 2.602v-3.434h-.411v2.44l-2.443-2.602zm5.695-2.925H94.9v2.925h-.41v-2.925h-.776v-.382h1.963z"/><path fill="#fff" d="M49.864 60.117h.97v-5.873l5.843 6.197v-8.209h-.97v5.827l-5.843-6.197zm8.514 0h4.177v-.902h-3.207v-2.983h3.116v-.901h-3.116v-2.209h3.207v-.901h-4.177zm10.146-6.983h-1.849v6.983h-.97v-6.983h-1.849v-.902h4.668zm5.433 3.006v.902h2.008c-.046 1.283-1.347 2.347-2.545 2.347-1.678 0-3.024-1.573-3.024-3.226 0-1.769 1.358-3.202 3.104-3.202.97.023 1.872.497 2.442 1.283l.685-.66a4.01 4.01 0 0 0-5.695-.612 4.12 4.12 0 0 0-1.507 3.226c0 2.185 1.758 4.092 3.938 4.092s3.686-1.664 3.686-3.826v-.312zm10.442 3.977-.89-1.977h-3.572l-.89 1.977h-1.039l3.72-8.22 3.721 8.22zm-2.67-6.07-1.381 3.191h2.762zm9.05 6.232 2.329-5.376h.022l.913 5.202h1.005l-1.587-8.22-2.67 6.209-2.671-6.209-1.586 8.22h1.004l.913-5.202h.023zm10.34-.162h-4.177v-7.885h4.177v.902h-3.207v2.208h3.116v.902h-3.116v2.983h3.207z"/><path fill="#73c15d" d="m75.726 42.799 5.307 5.434H70.43z"/><path fill="#34b778" d="M75.726 42.799v5.434h-5.308z"/><path fill="#73c15d" d="m84.673 33.492 7.122 7.295-7.122 7.295-7.121-7.295z"/><path fill="#27b575" d="M84.673 40.787h7.122l-7.122 7.295-7.121-7.295z"/><path fill="#34b778" d="M84.673 33.492v14.602l-7.121-7.295z"/><path fill="#00926a" d="M81.34 40.787h3.345v7.295l-7.122-7.295z"/><path fill="#fff" d="M82.916 40.787a3.26 3.26 0 0 0 1.757-1.78c.331.81.959 1.445 1.758 1.78-.41.139-.776.382-1.05.717a3.7 3.7 0 0 0-.708 1.064s-.09-.359-.616-.983a2.7 2.7 0 0 0-1.141-.798"/><path fill="#010101" d="m84.673 35.978 4.748 4.809-4.748 4.81-4.748-4.81zm0 1.791-2.99 3.03 2.99 3.029 2.99-3.03z"/><path fill="#73c15d" d="m66.31 33.492 7.122 7.295-7.122 7.295-7.122-7.295z"/><path fill="#27b575" d="M66.31 40.787h7.122l-7.122 7.295-7.122-7.295z"/><path fill="#34b778" d="M66.31 33.492v14.602l-7.122-7.295z"/><path fill="#00926a" d="M62.966 40.787h3.344v7.295l-7.122-7.295z"/><path fill="#fff" d="M64.552 40.787a3.26 3.26 0 0 0 1.758-1.78c.33.81.959 1.445 1.757 1.78-.41.139-.776.382-1.05.717-.296.312-.536.67-.707 1.064 0 0-.091-.359-.617-.983a2.74 2.74 0 0 0-1.14-.798"/><path fill="#010101" d="m66.31 35.978 4.748 4.809-4.748 4.81-4.748-4.81zm0 1.791-2.99 3.03 2.99 3.029 2.99-3.03z"/><path fill="#73c15d" d="m75.611 20 9.302 9.538-9.302 9.538-9.301-9.538z"/><path fill="#27b575" d="M75.611 29.538h9.302l-9.302 9.538-9.301-9.538z"/><path fill="#34b778" d="M75.611 20v19.076l-9.301-9.538z"/><path fill="#00926a" d="M71.24 29.538h4.36v9.538l-9.301-9.538z"/><path fill="#fff" d="M73.306 29.538a4.25 4.25 0 0 0 2.294-2.324 4.25 4.25 0 0 0 2.294 2.324s-.685.173-1.38.925c-.686.751-.914 1.398-.914 1.398s-.114-.462-.799-1.283a3.4 3.4 0 0 0-1.495-1.04"/><path fill="#010101" d="m75.611 23.526 5.935 6.012-5.935 6.012-5.934-6.012zm0 1.78-4.165 4.22 4.165 4.22 4.166-4.22z"/></g><defs><radialGradient id="b" cx="0" cy="0" r="1" gradientTransform="matrix(0 -3.34271 23.2414 0 75.714 67.832)" gradientUnits="userSpaceOnUse"><stop stop-color="#9a4d50"/><stop offset="1" stop-color="#bc7f6e"/></radialGradient><clipPath id="a"><path fill="#fff" d="M49.864 20h51.273v48H49.864z"/></clipPath></defs></svg>