<svg xmlns="http://www.w3.org/2000/svg" width="151" height="84" fill="none" viewBox="0 0 151 84"><g clip-path="url(#a)"><path fill="#fff" d="M34.217 31h1.903l-.008 1.712q0 .21-.208.21l-1.494-.004q-.193-.005-.193-.195zm2.257 0h1.856l.014 1.683q.004.238-.234.238l-1.446-.01q-.19 0-.19-.191zm2.224 0h1.83l.03 1.672q.003.253-.245.25l-1.44-.012q-.2 0-.197-.201zm2.239 0h1.79l.03 1.668q.006.25-.245.25H41.13q-.234 0-.23-.235zm2.206 0h1.845l.003 1.698q0 .22-.219.22l-1.435.003q-.219 0-.216-.216zm2.257 0h1.79l.011 1.69c0 .06-.023.117-.064.159a.22.22 0 0 1-.155.065l-1.392.011q-.244.003-.237-.246zm2.2 0h1.829l-.007 1.661a.257.257 0 0 1-.256.253l-1.377.011q-.237 0-.234-.238z"/><path fill="#ff4b00" d="M49.794 31h1.87l-.018 1.668a.213.213 0 0 1-.208.213l-1.44.03q-.218.002-.218-.22z"/><path fill="#ffb919" d="M62.709 31h1.895l-.007 1.709q0 .201-.2.201l-1.44.008q-.24 0-.24-.242z"/><path fill="#fff" d="M64.919 31h1.892l.01 1.694q0 .224-.222.224h-1.44q-.23 0-.23-.231zm2.264 0h1.833l.026 1.672q.007.25-.245.25l-1.435-.012q-.204 0-.2-.201zm2.243 0h1.785l.03 1.668q.003.25-.245.25h-1.38q-.239 0-.23-.235zm2.206 0h1.848l-.022 1.727q-.004.19-.194.19l-1.446.004q-.216 0-.212-.216zm12.958 0h3.031q1.798.63 1.308 2.67-.044.18-.212.249a.72.72 0 0 0-.475.663q-.014.165-.179.165H86.22q-.212 0-.212.213l.004 1.84q0 .165-.165.166l-1.143.007q-.165 0-.16-.165zm3.006 1.873a.26.26 0 0 0-.066-.165.6.6 0 0 0-.183-.137 1 1 0 0 0-.273-.09 1.5 1.5 0 0 0-.64.008 1 1 0 0 0-.27.098.6.6 0 0 0-.18.143.27.27 0 0 0-.06.166q0 .086.065.165a.6.6 0 0 0 .183.138q.12.06.273.09a1.5 1.5 0 0 0 .64-.01q.153-.033.27-.097a.6.6 0 0 0 .18-.143.26.26 0 0 0 .06-.166"/><path fill="#fff" d="M91 31h1.903c.778.29 1.307.755 1.337 1.668.04 1.111.171 3.216-.5 3.894-.812.81-3.693.554-3.916-.887Q89.236 31.895 91 31m1.79 1.985a.53.53 0 0 0-.324-.484.5.5 0 0 0-.2-.039l-.49.002a.52.52 0 0 0-.52.526l.007 2.024a.524.524 0 0 0 .524.522l.49-.001a.52.52 0 0 0 .52-.526zM96.22 31h2.15q1.466 1.005 1.056 1.819a.797.797 0 0 1-1.384.07q-.445-.708-1.395-.29a.25.25 0 0 0-.161.23c-.048.683-.395 3.297 1.103 2.67a.57.57 0 0 0 .274-.235q.467-.759 1.439-.469.193.055.197.257c.04 1.177-.68 1.859-1.848 1.936-.939.058-2.301.095-2.433-1.09a33 33 0 0 1-.211-3.604q0-.187.11-.337.466-.62 1.102-.957m4.157 0h1.263l.055 2.064a.216.216 0 0 0 .212.213l1.023.015a.266.266 0 0 0 .27-.246l.153-2.046h1.348l-.007 2.013q0 .175-.176.198l-.376.051q-.183.022-.183.206l-.003 1.019q0 .275.274.275l.274-.004a.22.22 0 0 1 .161.068.23.23 0 0 1 .065.163l-.033 1.782q-.004.195-.193.195l-1.063.014q-.216.004-.216-.212l.004-1.837a.19.19 0 0 0-.124-.184.2.2 0 0 0-.077-.014l-1.103.018q-.204.003-.204.209l.007 1.837q0 .172-.172.172h-1.095q-.195 0-.19-.19zm5.131 0h4.481l-.032 1.313q-.005.16-.165.161l-2.648.007a.24.24 0 0 0-.237.283l.055.311a.24.24 0 0 0 .082.145.24.24 0 0 0 .155.057l1.79-.004q.215 0 .215.217v1.056a.2.2 0 0 1-.197.198l-1.866.007q-.201 0-.19.198l.014.367q.012.183.19.183h2.63a.16.16 0 0 1 .119.047.17.17 0 0 1 .049.118l.011 1.126q0 .183-.183.183l-4.087-.004q-.193 0-.193-.19zm5.23 0h4.456l-.015 1.29q0 .188-.182.188l-1.107-.004q-.19 0-.19.19v4.13q0 .175-.179.175l-1.139.004q-.168 0-.168-.169l.003-4.08a.3.3 0 0 0-.018-.096.25.25 0 0 0-.23-.154h-1.081q-.171.003-.168-.169zm8.225 0h2.257q.103.169.081.381-.019.173-.19.173h-.501q-.23 0-.23.23l.004 2.74q0 .22-.219.23l-.146.004q-.194.012-.194-.187l.004-2.75q0-.264-.267-.267l-.533-.004a.197.197 0 0 1-.194-.194.53.53 0 0 1 .128-.356m2.886 0h.58l1.125 2.182q.11.216.216 0L124.85 31h.65v3.66q-.234.135-.413.098-.208-.044-.204-.26l.014-1.863a.1.1 0 0 0-.025-.074.1.1 0 0 0-.065-.042.12.12 0 0 0-.078.01.1.1 0 0 0-.054.055l-.556 1.162a.49.49 0 0 1-.444.283.5.5 0 0 1-.45-.272l-.64-1.265a.11.11 0 0 0-.208.052l.008 1.987a.22.22 0 0 1-.22.22h-.127q-.209 0-.209-.213z"/><path fill="#6414e6" d="m32 33.196 1.717.019q.197 0 .197.198l.003 1.525q0 .172-.171.169L32 35.063z"/><path fill="#fff" d="m35.972 33.228-1.614.003a.15.15 0 0 0-.15.15l.003 1.6c0 .082.067.15.15.15l1.614-.003a.15.15 0 0 0 .15-.15l-.003-1.6a.15.15 0 0 0-.15-.15m2.219-.002-1.585.006a.157.157 0 0 0-.157.158l.006 1.584c0 .087.07.158.157.157l1.586-.005a.157.157 0 0 0 .156-.159l-.005-1.584a.157.157 0 0 0-.158-.157m2.226.001-1.593-.003a.16.16 0 0 0-.16.161l-.004 1.584c0 .09.072.161.161.162l1.592.002a.16.16 0 0 0 .161-.16l.003-1.585a.16.16 0 0 0-.16-.161m2.218.002-1.607-.006a.146.146 0 0 0-.146.146l-.006 1.614c0 .08.065.147.146.147l1.607.005c.08 0 .146-.065.146-.146l.006-1.613a.146.146 0 0 0-.146-.147m2.212-.001-1.592.003a.157.157 0 0 0-.157.158l.003 1.584c0 .087.07.158.157.157l1.593-.002a.157.157 0 0 0 .156-.158l-.002-1.584a.157.157 0 0 0-.158-.158m2.217.006-1.57-.009a.17.17 0 0 0-.173.172l-.009 1.555c0 .095.076.172.171.173l1.57.008a.17.17 0 0 0 .173-.171l.008-1.555a.17.17 0 0 0-.17-.173m2.193-.008h-1.556a.176.176 0 0 0-.175.176v1.554c0 .097.079.176.175.176h1.556a.176.176 0 0 0 .176-.176v-1.554a.176.176 0 0 0-.176-.176m2.232-.001-1.578-.006a.17.17 0 0 0-.169.168l-.005 1.57c0 .093.074.169.167.169l1.578.006a.17.17 0 0 0 .169-.169l.005-1.569a.17.17 0 0 0-.167-.17m10.741-.009-1.593.008a.154.154 0 0 0-.153.155l.008 1.606c0 .085.07.153.155.153l1.592-.009c.085 0 .153-.07.153-.154l-.009-1.606a.154.154 0 0 0-.154-.154m2.219.006-1.614.005a.15.15 0 0 0-.15.15l.006 1.607c0 .083.067.15.15.15l1.614-.006a.15.15 0 0 0 .15-.15l-.006-1.607a.15.15 0 0 0-.15-.15m2.254.015-1.636-.009a.14.14 0 0 0-.14.139l-.008 1.62c0 .078.061.14.138.14l1.636.01a.14.14 0 0 0 .14-.14l.008-1.62a.14.14 0 0 0-.138-.14m2.198-.008h-1.593a.157.157 0 0 0-.157.157v1.592c0 .087.07.157.157.157H68.9c.086 0 .157-.07.157-.157v-1.592a.157.157 0 0 0-.157-.157m2.231-.004h-1.643a.13.13 0 0 0-.132.132v1.642c0 .073.06.132.132.132h1.643a.13.13 0 0 0 .132-.132v-1.642a.13.13 0 0 0-.132-.132m2.189.008-1.57-.002a.17.17 0 0 0-.168.168l-.003 1.562a.17.17 0 0 0 .168.17l1.57.002a.17.17 0 0 0 .169-.169l.002-1.561a.17.17 0 0 0-.167-.17m2.196-.001-1.534-.006a.19.19 0 0 0-.19.19l-.006 1.526a.19.19 0 0 0 .19.191l1.534.005a.19.19 0 0 0 .19-.19l.006-1.525a.19.19 0 0 0-.19-.191m2.251-.007h-1.593a.16.16 0 0 0-.16.161v1.584c0 .09.071.161.16.161h1.593a.16.16 0 0 0 .16-.161v-1.584a.16.16 0 0 0-.16-.161M32 37.325v-1.863l1.684-.007a.23.23 0 0 1 .23.231v1.452q0 .202-.197.198zm3.96-1.858-1.592-.003a.16.16 0 0 0-.157.157l-.003 1.577c0 .087.07.158.157.158l1.593.003c.086 0 .157-.07.157-.157l.003-1.577a.16.16 0 0 0-.157-.158m13.334-.011-1.637.012a.135.135 0 0 0-.134.136l.011 1.621c0 .075.062.135.137.135l1.636-.012a.135.135 0 0 0 .134-.136l-.011-1.62a.135.135 0 0 0-.136-.136m2.171 0-1.57.013a.17.17 0 0 0-.167.17l.014 1.562c0 .093.076.168.17.167l1.57-.013a.17.17 0 0 0 .166-.17l-.014-1.562a.17.17 0 0 0-.169-.167m2.243-.011-1.578.014a.165.165 0 0 0-.163.166l.014 1.577c0 .09.075.164.165.163l1.578-.014c.09 0 .164-.075.163-.166l-.014-1.577a.165.165 0 0 0-.166-.163"/><path fill="#e61973" d="m59.978 35.435-1.542.011a.16.16 0 0 0-.16.163l.012 1.598c0 .09.073.161.162.16l1.54-.01a.16.16 0 0 0 .16-.163l-.01-1.599a.16.16 0 0 0-.162-.16"/><path fill="#fff" d="m62.22 35.449-1.578.006a.17.17 0 0 0-.167.169l.005 1.57c0 .092.076.167.169.167l1.577-.005a.17.17 0 0 0 .168-.17l-.006-1.569a.17.17 0 0 0-.168-.168m2.273.016-1.702.003a.106.106 0 0 0-.105.106l.002 1.672c0 .059.048.106.106.106l1.703-.003a.106.106 0 0 0 .105-.106L64.6 35.57a.106.106 0 0 0-.106-.106m11.079-.008-1.643.012a.124.124 0 0 0-.124.125l.012 1.643c0 .069.056.124.125.124l1.643-.012a.124.124 0 0 0 .124-.125l-.012-1.643a.124.124 0 0 0-.125-.124m2.187.004-1.592.011a.16.16 0 0 0-.16.163l.012 1.57c0 .088.073.16.162.16l1.592-.012a.16.16 0 0 0 .16-.162l-.011-1.57a.16.16 0 0 0-.162-.16M32 39.529V37.68l1.735.025q.183.004.182.184v1.466q0 .205-.204.202zm3.958-1.832-1.577-.011a.165.165 0 0 0-.166.164l-.01 1.569a.164.164 0 0 0 .163.166l1.577.011a.166.166 0 0 0 .166-.164l.01-1.57a.165.165 0 0 0-.163-.165m15.497-.017-1.527.008a.18.18 0 0 0-.178.181l.008 1.555c0 .099.081.179.18.178l1.527-.008a.18.18 0 0 0 .178-.18l-.008-1.555a.18.18 0 0 0-.18-.178m2.247.008h-1.556a.17.17 0 0 0-.171.172v1.555c0 .095.076.172.171.172h1.556a.17.17 0 0 0 .172-.172V37.86a.17.17 0 0 0-.172-.172m6.274-.004-1.534.009a.165.165 0 0 0-.164.165l.008 1.577c0 .091.075.165.166.164l1.534-.008c.09 0 .164-.075.163-.166l-.008-1.576a.165.165 0 0 0-.165-.165m2.251.005h-1.585a.176.176 0 0 0-.176.175v1.555c0 .097.079.176.176.176h1.585a.176.176 0 0 0 .175-.176v-1.554a.176.176 0 0 0-.175-.177m23.766 3.017-.026 2.457q-.003.239.237.26l1.078.088a.357.357 0 0 0 .397-.296.36.36 0 0 0-.277-.411q-.985-.264-.526-1.408a.255.255 0 0 1 .256-.176h1.622q.234 0 .233.234l.004 2.274a.4.4 0 0 1-.106.27l-.77.855a.24.24 0 0 1-.172.077l-2.396.026q-.179 0-.205-.18-.07-.575-.58-.594-.23-.007-.23-.238l.003-4.06q0-.175.18-.16.565.047.58-.547.007-.201.208-.201h2.564q.183 0 .183.187v1.092q0 .187-.183.187l-1.819.008a.25.25 0 0 0-.18.075.26.26 0 0 0-.075.181m5.263 2.949v1.1q.003.183-.183.183l-1.081.007q-.186 0-.19-.187-.037-1.968-.015-3.923c.022-1.775 1.165-1.881 2.564-1.874q2.024.015 1.94 2.314-.063 1.727-.084 3.461-.004.195-.197.198l-1.023.008q-.201.003-.201-.198l-.004-1.042q0-.238-.237-.238l-1.107.004a.18.18 0 0 0-.129.054.2.2 0 0 0-.053.133m1.539-2.82a.37.37 0 0 0-.36-.38l-.804-.018a.37.37 0 0 0-.377.362l-.018.8a.37.37 0 0 0 .36.378l.804.018a.37.37 0 0 0 .377-.362zm5.747 1.859-.34.007q-.244.007-.226.25.01.176 0 .26a.36.36 0 0 1-.386.308.36.36 0 0 1-.326-.37l.01-.253a.19.19 0 0 0-.119-.189.2.2 0 0 0-.078-.013l-.416.011q-.19.007-.19.198l.004 1.848q0 .19-.194.19h-1.04q-.228 0-.227-.227l-.011-5.408a.298.298 0 0 1 .35-.29c.056.01.109.037.15.077l1.552 1.522q.136.132.187.315.095.352.518.338a.25.25 0 0 0 .23-.186.3.3 0 0 0 .004-.104q-.088-.51.387-.513.244 0 .293-.239.09-.454.54-.524.226-.033.256-.26l.033-.246a.357.357 0 0 1 .615-.197.36.36 0 0 1 .1.245l-.003 5.503q0 .19-.186.191l-1.096.004q-.186 0-.186-.187v-1.86q0-.204-.205-.201m4.051.773h2.753q.05 0 .086.036a.12.12 0 0 1 .035.085l-.007 1.232a.1.1 0 0 1-.01.047.1.1 0 0 1-.026.039.12.12 0 0 1-.085.035h-4.226a.12.12 0 0 1-.12-.12l.003-5.724a.12.12 0 0 1 .036-.086.12.12 0 0 1 .085-.035h4.222a.12.12 0 0 1 .121.121l.007 1.228a.12.12 0 0 1-.035.086.12.12 0 0 1-.086.035h-2.75a.12.12 0 0 0-.12.12l.007.54q.001.05.035.086a.12.12 0 0 0 .085.035l1.976-.011q.024 0 .047.01a.12.12 0 0 1 .074.112v1.257a.12.12 0 0 1-.035.085.1.1 0 0 1-.039.026.1.1 0 0 1-.047.01l-1.994-.011a.12.12 0 0 0-.12.124l.007.52a.12.12 0 0 0 .037.084.12.12 0 0 0 .084.034m4.375-3.864v-.503q0-.05.036-.088a.13.13 0 0 1 .088-.036h3.492q.05 0 .088.036a.13.13 0 0 1 .036.088v1.221a.13.13 0 0 1-.036.088.13.13 0 0 1-.088.037h-2.743a.124.124 0 0 0-.124.114l-.048.524a.2.2 0 0 0 .006.051.13.13 0 0 0 .118.085h2.057a.125.125 0 0 1 .124.146l-.077.426a.1.1 0 0 0 .001.05.13.13 0 0 0 .06.08.1.1 0 0 0 .049.016l.591.066a.12.12 0 0 1 .079.042q.03.036.031.083l-.004 1.932a.125.125 0 0 1-.113.125l-.562.055a.13.13 0 0 0-.086.048.1.1 0 0 0-.021.045.1.1 0 0 0-.003.05l.059.414a.12.12 0 0 1-.03.1.1.1 0 0 1-.042.032.1.1 0 0 1-.053.011h-3.495a.13.13 0 0 1-.088-.036.13.13 0 0 1-.036-.088l-.004-1.225q0-.051.037-.088a.12.12 0 0 1 .087-.037h2.769a.13.13 0 0 0 .088-.036.13.13 0 0 0 .036-.088l-.007-.514a.12.12 0 0 0-.037-.088.12.12 0 0 0-.087-.036l-2.031.01a.12.12 0 0 1-.089-.038.12.12 0 0 1-.035-.09l.018-.524a.1.1 0 0 0-.009-.052.13.13 0 0 0-.074-.07.1.1 0 0 0-.052-.006l-.482.033a.125.125 0 0 1-.132-.125l.004-2.013q0-.025.011-.047a.1.1 0 0 1 .028-.04.13.13 0 0 1 .089-.034l.475.018a.12.12 0 0 0 .092-.033.12.12 0 0 0 .039-.09M32 41.736v-1.785l1.698-.022q.22 0 .22.22v1.415a.22.22 0 0 1-.066.153.2.2 0 0 1-.154.06zm3.95-1.834-1.55-.014a.18.18 0 0 0-.18.178l-.014 1.562c0 .1.08.18.178.181l1.548.014a.18.18 0 0 0 .181-.178l.014-1.562a.18.18 0 0 0-.178-.181m15.512-.009-1.526-.003a.18.18 0 0 0-.18.18l-.002 1.561c0 .1.08.18.178.18l1.527.003a.18.18 0 0 0 .18-.18l.002-1.561c0-.1-.08-.18-.179-.18m2.232 0-1.534-.003a.187.187 0 0 0-.187.187l-.002 1.547c0 .103.083.187.186.187l1.534.003a.187.187 0 0 0 .186-.187l.003-1.547a.187.187 0 0 0-.186-.187m6.275.001-1.512.002a.176.176 0 0 0-.175.176l.003 1.57c0 .097.078.176.175.175l1.512-.002c.097 0 .176-.08.175-.176l-.002-1.57a.176.176 0 0 0-.176-.175m2.251.006-1.556-.01a.19.19 0 0 0-.191.19l-.011 1.54a.19.19 0 0 0 .189.191l1.555.011a.19.19 0 0 0 .192-.19l.01-1.54a.19.19 0 0 0-.188-.191m8.835-.016-1.505.014a.2.2 0 0 0-.2.203l.014 1.518c0 .111.091.2.203.2l1.504-.013a.203.203 0 0 0 .2-.204l-.014-1.518a.2.2 0 0 0-.203-.2m2.242.01-1.526.002a.187.187 0 0 0-.186.188l.002 1.547c0 .103.084.187.187.187l1.527-.003a.187.187 0 0 0 .186-.187l-.003-1.548a.187.187 0 0 0-.187-.187m2.215-.002-1.519.006a.194.194 0 0 0-.193.195l.006 1.532c0 .108.087.194.194.194l1.52-.005a.194.194 0 0 0 .192-.195l-.005-1.533a.194.194 0 0 0-.194-.194m2.228-.002-1.549.005c-.1 0-.182.083-.182.184l.005 1.554c0 .102.083.183.184.183l1.548-.005a.18.18 0 0 0 .182-.184l-.005-1.555a.183.183 0 0 0-.183-.183"/><path fill="#14e691" d="m79.95 39.89-1.549.003a.18.18 0 0 0-.178.18l.002 1.555c0 .1.08.18.18.18l1.548-.004a.18.18 0 0 0 .179-.18l-.003-1.554c0-.1-.08-.18-.179-.18"/><path fill="#fff" d="M32 43.95v-1.789l1.713-.014q.204 0 .204.205l-.003 1.415q0 .231-.23.224zm3.966-1.827-1.585-.011a.16.16 0 0 0-.162.16l-.011 1.584c0 .089.07.161.16.162l1.584.011a.16.16 0 0 0 .162-.16l.011-1.584a.16.16 0 0 0-.16-.162m13.294-.005-1.549-.002c-.1 0-.182.081-.182.183l-.003 1.54c0 .1.081.183.182.183l1.549.003c.1 0 .182-.082.183-.183l.002-1.54a.183.183 0 0 0-.182-.184m2.198-.001-1.526-.008a.187.187 0 0 0-.188.186l-.008 1.54c0 .104.083.188.186.188l1.526.008a.187.187 0 0 0 .188-.186l.008-1.54a.187.187 0 0 0-.186-.188m2.265.001-1.585-.003a.154.154 0 0 0-.154.154l-.002 1.599c0 .085.068.154.153.154l1.585.003a.154.154 0 0 0 .154-.154l.002-1.599a.154.154 0 0 0-.153-.154m6.266-.005h-1.541a.16.16 0 0 0-.161.162v1.584c0 .089.072.16.16.16h1.542a.16.16 0 0 0 .16-.16v-1.584a.16.16 0 0 0-.16-.162m2.26.006-1.607-.011a.16.16 0 0 0-.162.16l-.01 1.584a.16.16 0 0 0 .159.162l1.607.011a.16.16 0 0 0 .162-.16l.01-1.584a.16.16 0 0 0-.159-.162m8.86-.004-1.577-.017a.165.165 0 0 0-.166.164l-.017 1.584a.165.165 0 0 0 .163.166l1.577.017a.165.165 0 0 0 .166-.163l.017-1.584a.165.165 0 0 0-.163-.167m2.191-.007-1.527.003a.187.187 0 0 0-.186.187l.003 1.533c0 .103.084.187.187.187l1.526-.003a.187.187 0 0 0 .186-.187l-.002-1.533a.187.187 0 0 0-.187-.187m2.211.012-1.498-.011a.205.205 0 0 0-.206.204l-.01 1.496c0 .113.09.206.203.207l1.497.01c.113 0 .206-.09.206-.204l.01-1.496a.205.205 0 0 0-.202-.207m2.185-.009H76.24a.23.23 0 0 0-.23.231v1.452a.23.23 0 0 0 .23.231h1.454a.23.23 0 0 0 .23-.23V42.34a.23.23 0 0 0-.23-.23m2.273.002-1.6.01a.154.154 0 0 0-.152.156l.01 1.599c.002.085.07.153.155.153l1.6-.012c.085 0 .153-.07.152-.155l-.01-1.598a.154.154 0 0 0-.155-.153M32 46.198v-1.826l1.717-.015q.2 0 .2.202l-.003 1.412q0 .238-.238.238zm3.937-1.848-1.527-.006a.19.19 0 0 0-.19.19l-.006 1.526a.19.19 0 0 0 .19.191l1.526.005a.19.19 0 0 0 .19-.19l.006-1.525a.19.19 0 0 0-.19-.191m2.236-.017-1.556.02a.17.17 0 0 0-.166.17l.02 1.577a.17.17 0 0 0 .17.166l1.555-.019a.17.17 0 0 0 .166-.17l-.02-1.577a.17.17 0 0 0-.17-.167m2.189.004-1.49.005a.21.21 0 0 0-.207.21l.005 1.503c0 .115.094.209.21.208l1.49-.005a.21.21 0 0 0 .207-.21l-.006-1.503a.21.21 0 0 0-.208-.208m2.217 0-1.505.005a.194.194 0 0 0-.193.195l.005 1.533c0 .107.087.194.194.193l1.505-.005a.194.194 0 0 0 .193-.195l-.005-1.532a.194.194 0 0 0-.194-.194m2.209.005-1.475.01a.216.216 0 0 0-.214.218l.01 1.481c.001.12.098.216.217.215l1.476-.01a.216.216 0 0 0 .214-.218l-.01-1.481a.216.216 0 0 0-.218-.215m2.243-.002-1.52.006a.2.2 0 0 0-.196.199l.005 1.518c0 .109.09.197.198.197l1.52-.005c.108 0 .196-.09.196-.199l-.005-1.518a.2.2 0 0 0-.198-.197m2.211-.002-1.519.008c-.11 0-.2.09-.2.202l.008 1.496a.2.2 0 0 0 .202.2l1.52-.007c.11 0 .2-.091.2-.203l-.009-1.496a.2.2 0 0 0-.202-.2m2.257.009-1.607-.003a.146.146 0 0 0-.146.146l-.003 1.606c0 .081.065.147.146.147l1.607.003c.08 0 .146-.065.146-.146l.003-1.606a.146.146 0 0 0-.146-.147m8.486-.001H58.45a.165.165 0 0 0-.164.165v1.576c0 .091.073.165.164.165h1.534a.165.165 0 0 0 .165-.165v-1.576a.165.165 0 0 0-.165-.165m2.239.003h-1.578a.176.176 0 0 0-.175.177v1.547c0 .097.078.176.175.176h1.578a.176.176 0 0 0 .175-.176v-1.547a.176.176 0 0 0-.175-.176m15.466-.011-1.44-.002a.24.24 0 0 0-.237.238l-.002 1.445c0 .132.105.238.236.239l1.44.002a.24.24 0 0 0 .237-.238l.003-1.444a.24.24 0 0 0-.237-.24m2.261.01-1.542-.007c-.1 0-.183.08-.183.182l-.009 1.547c0 .102.081.184.182.185l1.541.008a.184.184 0 0 0 .184-.182l.008-1.548a.183.183 0 0 0-.182-.184M32 46.587l1.739.007q.178 0 .178.18l-.003 1.47q0 .205-.205.202L32 48.416zm3.944-.009-1.541-.011a.18.18 0 0 0-.184.182l-.011 1.54c0 .101.08.184.181.184l1.542.011c.1 0 .183-.08.184-.182l.01-1.54a.183.183 0 0 0-.181-.184m2.264.007-1.585-.017a.157.157 0 0 0-.159.156l-.016 1.584a.157.157 0 0 0 .155.16l1.585.016a.157.157 0 0 0 .159-.156l.016-1.584a.157.157 0 0 0-.155-.16m2.179-.011-1.526-.002a.19.19 0 0 0-.19.19l-.003 1.518c0 .105.084.19.19.191l1.526.003a.19.19 0 0 0 .19-.19l.003-1.519a.19.19 0 0 0-.19-.19m2.196-.003-1.505.003a.2.2 0 0 0-.197.198l.003 1.504c0 .109.088.197.197.197l1.505-.002a.2.2 0 0 0 .197-.199l-.003-1.503a.2.2 0 0 0-.197-.198m2.231 0-1.519.003a.2.2 0 0 0-.197.198l.003 1.504c0 .109.088.197.197.197l1.52-.002a.2.2 0 0 0 .197-.199l-.003-1.503a.2.2 0 0 0-.198-.198"/><path fill="#e619dc" d="M47.03 46.58h-1.505a.205.205 0 0 0-.205.205v1.49c0 .113.092.204.205.204h1.504a.205.205 0 0 0 .205-.205v-1.489a.205.205 0 0 0-.205-.205"/><path fill="#fff" d="m60.018 46.57-1.622.012a.117.117 0 0 0-.116.118l.012 1.665c0 .065.053.117.117.116l1.622-.01a.117.117 0 0 0 .116-.119l-.011-1.665a.117.117 0 0 0-.118-.116m2.202.006-1.578.005a.17.17 0 0 0-.167.17l.005 1.554c0 .094.076.169.169.168l1.577-.005a.17.17 0 0 0 .168-.17l-.006-1.554a.17.17 0 0 0-.168-.168m2.25.004-1.65-.003a.13.13 0 0 0-.132.132l-.003 1.636c0 .072.06.132.132.132l1.65.003a.13.13 0 0 0 .132-.132l.003-1.635a.13.13 0 0 0-.131-.133m11.056-.004-1.542-.002a.17.17 0 0 0-.172.172l-.002 1.569c0 .095.076.172.171.172l1.541.003a.17.17 0 0 0 .172-.172l.003-1.57a.17.17 0 0 0-.171-.172m2.184-.005-1.497.008a.21.21 0 0 0-.207.21l.008 1.496c0 .115.094.209.209.208l1.497-.008a.21.21 0 0 0 .207-.21l-.007-1.496a.21.21 0 0 0-.21-.208"/><path fill="#ff1928" d="M79.94 46.58h-1.519a.19.19 0 0 0-.19.19v1.519c0 .105.085.19.19.19h1.52a.19.19 0 0 0 .19-.19V46.77a.19.19 0 0 0-.19-.19"/><path fill="#fff" d="m87.362 50.687-1.877-.03q-.154-.004-.172-.154l-.047-.403a.24.24 0 0 0-.095-.164.23.23 0 0 0-.183-.041l-.197.036q-.263.048-.26-.216l.008-1.757q0-.231.23-.252.486-.052.508-.536.01-.22.23-.22h3.305a.26.26 0 0 1 .197.088.27.27 0 0 1 .066.21l-.098.949a.24.24 0 0 1-.077.152c-.044.04-.1.06-.157.06l-2.502.019a.34.34 0 0 0-.344.313.34.34 0 0 0 .29.365q.671.114 1.369.055a1.32 1.32 0 0 1 1.006.35 1.34 1.34 0 0 1 .43.981v1.492q0 .191-.19.188l-.362-.004a.18.18 0 0 0-.171.11.2.2 0 0 0-.016.07l-.007.38q-.003.184-.186.184h-3.357a.17.17 0 0 1-.12-.05.17.17 0 0 1-.048-.119l.011-1.14q0-.16.161-.161h2.575q.222 0 .248-.224l.037-.297q.026-.231-.205-.234m2.94 1.488-.321-.01q-.208-.009-.204-.217c.014-1.07-.3-4.034.577-4.679.635-.473 2.023-.366 2.753-.264a1.25 1.25 0 0 1 1.082 1.243l.014 3.568q.004.227-.212.304-.398.144-.482.583a.25.25 0 0 1-.245.202l-2.549.007q-.186 0-.186-.183l-.004-.323a.23.23 0 0 0-.223-.23m2.493-3.287a.5.5 0 0 0-.496-.5l-.533-.001a.496.496 0 0 0-.498.498l-.003 2.09a.5.5 0 0 0 .496.5h.533a.494.494 0 0 0 .498-.498zm3.669 1.984.014 1.8q0 .24-.237.239h-.997q-.216 0-.22-.22l-.017-5.515q0-.23.226-.23h4.061q.187 0 .187.186l-.004 1.049q0 .22-.223.224l-2.608.036a.36.36 0 0 0-.363.361.37.37 0 0 0 .364.369l1.895.033q.198.003.197.198v1.056q.004.205-.2.205l-1.874.008q-.201 0-.201.201m5.164-2.456h-1.267a.124.124 0 0 1-.124-.125l.018-1.221q0-.052.036-.088a.13.13 0 0 1 .088-.037h4.193a.124.124 0 0 1 .124.125l.008 1.221a.13.13 0 0 1-.037.088.12.12 0 0 1-.088.037h-1.234a.13.13 0 0 0-.088.036.1.1 0 0 0-.027.04.1.1 0 0 0-.009.048v4.246a.12.12 0 0 1-.037.088.12.12 0 0 1-.088.037h-1.219a.126.126 0 0 1-.125-.125v-4.246a.1.1 0 0 0-.009-.047.1.1 0 0 0-.027-.04.12.12 0 0 0-.088-.037M32 48.791l1.735.007q.18 0 .179.176l.003 1.47q0 .24-.237.232L32 50.628zm3.97-.001-1.6-.006a.154.154 0 0 0-.154.153l-.005 1.606c0 .085.068.154.152.155l1.6.005a.154.154 0 0 0 .154-.153l.006-1.606a.154.154 0 0 0-.153-.155"/><path fill="#1987e6" d="m62.216 48.793-1.55-.005a.18.18 0 0 0-.179.179l-.005 1.554c0 .1.08.18.178.18l1.549.006a.18.18 0 0 0 .18-.179l.005-1.554c0-.1-.08-.18-.178-.18"/><path fill="#fff" d="M64.415 48.783h-1.527a.2.2 0 0 0-.197.198v1.526c0 .109.088.198.197.198h1.527a.2.2 0 0 0 .197-.198V48.98a.2.2 0 0 0-.197-.198m2.245.001h-1.555a.176.176 0 0 0-.175.176v1.57c0 .097.078.175.175.175h1.556a.176.176 0 0 0 .175-.175v-1.57a.176.176 0 0 0-.175-.176m2.208-.001-1.541.003a.187.187 0 0 0-.186.187l.002 1.547c0 .104.084.187.187.187l1.541-.003a.187.187 0 0 0 .186-.187l-.003-1.547a.187.187 0 0 0-.186-.187m2.191-.006-1.504.008a.2.2 0 0 0-.197.2l.008 1.532c.001.11.09.197.199.197l1.504-.008c.11 0 .197-.09.197-.2l-.008-1.532c0-.11-.09-.197-.199-.197m2.216.005-1.49.005a.2.2 0 0 0-.2.203l.005 1.518a.2.2 0 0 0 .201.2l1.49-.005a.2.2 0 0 0 .2-.202l-.005-1.518a.2.2 0 0 0-.202-.2m2.195.001h-1.424a.24.24 0 0 0-.238.239v1.444c0 .132.107.239.238.239h1.424a.24.24 0 0 0 .238-.239v-1.444a.24.24 0 0 0-.238-.239m2.26.008-1.497-.015a.21.21 0 0 0-.214.21l-.016 1.496a.21.21 0 0 0 .21.215l1.497.016a.21.21 0 0 0 .214-.21l.016-1.497a.21.21 0 0 0-.21-.215M32 52.89v-1.85l1.706-.007q.21 0 .208.21v1.473q0 .184-.183.184z"/><path fill="#18bee6" d="m35.974 51.021-1.614.006a.143.143 0 0 0-.142.143l.005 1.606c0 .08.065.143.143.143l1.615-.006a.143.143 0 0 0 .142-.143l-.006-1.606a.143.143 0 0 0-.143-.143"/><path fill="#fff" d="m64.448 51.003-1.593.005a.154.154 0 0 0-.153.155l.006 1.598c0 .085.07.154.154.154l1.592-.006c.085 0 .154-.07.153-.154l-.005-1.599a.154.154 0 0 0-.154-.153m2.213 0-1.57.005a.17.17 0 0 0-.168.17l.006 1.569c0 .093.075.168.168.168l1.57-.006a.17.17 0 0 0 .168-.169l-.005-1.57a.17.17 0 0 0-.169-.167m2.175-.005-1.475.008a.216.216 0 0 0-.215.217l.008 1.482c0 .119.098.215.217.215l1.475-.008a.216.216 0 0 0 .215-.218l-.008-1.48a.216.216 0 0 0-.217-.216m2.204.006-1.447-.005a.23.23 0 0 0-.23.23l-.006 1.452a.23.23 0 0 0 .23.232l1.446.005a.23.23 0 0 0 .23-.23l.006-1.452a.23.23 0 0 0-.23-.232m2.238 0-1.483.003a.21.21 0 0 0-.211.212l.002 1.482c0 .117.096.212.213.212l1.482-.002a.21.21 0 0 0 .212-.214l-.003-1.48a.21.21 0 0 0-.212-.213"/><path fill="#ff4b00" d="m75.513 51.014-1.49-.01a.205.205 0 0 0-.206.203l-.01 1.496c0 .114.09.206.203.207l1.49.01a.204.204 0 0 0 .206-.203l.01-1.496a.205.205 0 0 0-.203-.207"/></g><defs><clipPath id="a"><path fill="#fff" d="M32 31h93.5v22H32z"/></clipPath></defs></svg>