<svg xmlns="http://www.w3.org/2000/svg" width="151" height="84" fill="none" viewBox="0 0 151 84"><g clip-path="url(#a)"><path fill="#2185c7" d="M110.145 48.245H36.413c-1.888 0-2.846-.93-3.23-2.003a3.35 3.35 0 0 1-.045-2.047l1.416-4.952c.398-1.33 1.578-3.549 4.469-3.549h69.317c3.632.082 4.558 0 5.63 0h1.952c2.654 0 3.819 1.774 3.392 3.75-.296 1.43-1.505 5.223-1.505 5.223-.471 2.118-2.3 3.578-4.911 3.578zm-38.13-2.848 2.035-.014 1.12-3.506c.251-1.017-.294-1.89-1.37-1.89h-1.932a2.85 2.85 0 0 0-2.685 1.818l-1.135 3.592 2.08-.014 1.032-3.45 1.872.015zm-2.493-5.166.796-2.29h-2.683l-.84 2.29zm-6.326 1.345H61.38l1.224-3.82h-2.08l-1.268 3.95c-.235 1.015.295 1.888 1.372 1.888h.015l-.575 1.803h2.034l.591-1.803c1.283-.043 2.242-.901 2.566-1.803l1.313-4.035h-2.035zm-5.427-3.82h-1.932c-1.343-.015-2.36.872-2.684 1.817l-1.962 5.84h2.064l.634-1.89 1.83.014-.547 1.875h1.991l1.992-5.768c.236-1.016-.295-1.889-1.386-1.889m-10.9 0-2.507 7.64h6.018l1.282-3.82h-2.02l-.62 1.889H47.15l1.83-5.71zm-2.801 0h-3.895l-2.536 7.656h2.065l.633-1.89h1.815s1.888.087 2.64-1.789c.236-.587.694-2.046.694-2.046.352-1.159-.326-1.932-1.416-1.932m12.299 3.82H54.42l.663-1.889h1.918zm-13.554 0h-1.932l.665-1.889h1.917z"/><path fill="#000" d="M79.61 36.714a9 9 0 0 1 8.581-6.285h20.601c3.381 0 5.787 3.285 4.767 6.508l-3.242 10.247a9 9 0 0 1-8.58 6.285H81.135c-3.38 0-5.787-3.285-4.767-6.509z"/><path fill="#ed1f24" d="M108.681 32.16s-3.363.014-4.588 0c-3.332-.043-6.12 2.175-6.946 4.722l-2.345 7.198c-2.61 6.254.723 7.313 3.024 7.299h3.834c2.831 0 5.944-1.989 6.77-4.536l3.186-9.847c.854-2.289-.547-4.836-2.935-4.836m-22.24 12.092h2.462l-.796 2.419H83.3l.665-2.033.118-.357 1.578-4.752.782-2.39h9.202l.045-.143 1.342-4.55s-7.64.014-8.865 0c-3.332-.043-6.062 2.418-6.65 4.436L79.17 44.08c-2.934 6.699.93 7.299 3.024 7.299h3.835c3.466 0 5.943-2.132 6.77-4.68l2.138-7.183h-6.934zm17.092 2.433h-4.454l3.097-9.56h4.454z"/></g><defs><clipPath id="a"><path fill="#fff" d="M33 30h87v24H33z"/></clipPath></defs></svg>