<svg xmlns="http://www.w3.org/2000/svg" width="151" height="84" fill="none" viewBox="0 0 151 84"><g fill-rule="evenodd" clip-path="url(#a)" clip-rule="evenodd"><path fill="#e99d31" d="M103.273 31.546c-2.364 0-4.728.727-6.728 2-.272-.91-1.545-4.455-5.09-6.364 2.453.09 4.545 1.545 5.727 3.636 0 0-1.273-5.636-.91-9.818C99 24.273 101 29.636 101 29.636c-.182-2.454.817-4.818 2.727-6.272-1.727 3.545-.728 7.272-.454 8.182m6 2.454a14.05 14.05 0 0 0-15.091 3c-4 3.909-5.091 9.909-2.91 15.09 2.182 5.183 7.273 8.455 12.819 8.455 7.545 0 13.728-6.181 13.636-13.818.091-5.545-3.272-10.545-8.454-12.727m-5.091 25.09c-6.818-.09-12.273-5.545-12.273-12.363s5.455-12.272 12.273-12.363c6.818 0 12.363 5.545 12.363 12.363S111 59.091 104.182 59.091M108.364 42c4.545-.272 2.181-5.817-2.364-5.545-4.273.273-2.364 5.818 2.364 5.545"/><path fill="#fff" d="M86.182 44.182c.818 0 1.637.364 2.272 1l1.002-.91c-.819-.908-2-1.454-3.182-1.454-.728 0-1.364.182-2 .546-1.091.546-1.728 1.637-1.91 2.727-.182 1.182.272 2.364 1.09 3.182.728.727 1.728 1.09 2.819 1q.817 0 1.636-.273a6 6 0 0 0 1.546-1.09l-.91-1.002c-.272.364-.727.637-1.09.819s-.728.272-1.091.181c-.455 0-.91-.092-1.272-.363a2.2 2.2 0 0 1-.91-.91c-.182-.362-.364-.817-.273-1.271v-.091c-.182-1.091 1-2.091 2.273-2.091m14.363-1h-1.363v7h3.363v-1.273h-2zm-3.363.273c-.547-.182-1.091-.273-1.728-.182H94v7h1.364v-3c.454 0 1 0 1.454-.092.455-.09.818-.363 1.091-.636.273-.363.455-.818.364-1.272a2.8 2.8 0 0 0-.274-1.182c-.18-.273-.454-.545-.817-.636m-.273 2.182-.273.272c-.272.091-.454.091-.727.091h-.455v-1.454h.364c.273 0 .636 0 .91.18.181.092.362.364.362.637-.05 0-.073.058-.098.124a.4.4 0 0 1-.083.15m12.364-2.455h1.454L112 45.727l1.364-2.545h1.454l-2.091 4v3h-1.363v-3zm13.182.09H122L121.455 45l-.637-1.727h-.454l-.455 2.454h.546l.272-1.545.455 1.545h.454l.546-1.545.273 1.545h.454zm-3.637.455h-.454v-.454h1.454v.454h-.454v2h-.546zm-15.454 6.454 2.727-7h1.455l2.728 7h-1.455l-.545-1.455h-2.909l-.547 1.455zm3.454-5.09-1 2.363h1.909zm-65.363 1.181c.272-.362.363-.727.363-1.182s-.09-.818-.273-1.181a2.14 2.14 0 0 0-.818-.728C40.182 43 39.545 42.91 39 43h-1.545v7.181h1.363v-3h.091l1.636 3h1.546L40.364 47c.454-.091.818-.364 1.09-.728m-2.182-.454h-.455v-1.455h.455c.272 0 .454 0 .727.091a.68.68 0 0 1 .455.636c0 .182-.091.455-.273.546-.273.182-.546.273-.91.182m-5.818-2.727c.545-.09 1.181 0 1.727.182.363.091.636.364.818.727.182.365.273.82.273 1.182.09.455-.091.91-.364 1.273-.273.364-.636.636-1.09.726-.455.092-1 .092-1.455.092v3H32v-7.182zm1 2.728c.181-.091.272-.182.363-.273s.182-.273.182-.364c0-.273-.182-.545-.364-.635-.272-.092-.545-.092-.818-.092h-.454v1.455h.363c.273 0 .455 0 .728-.091m45.454-2.728v7.09h1.364v-7.09zM43 50.273l2.818-7.182h1.364L50 50.273h-1.455L48 48.817h-2.91l-.636 1.456zm2.546-2.82 1-2.453 1 2.454zm25.181-4.362-2.818 7.182h1.364l.636-1.456h3l.545 1.456h1.455l-2.818-7.182zm-.273 4.364 1-2.454 1 2.454zM76 44.364h-1.273V43.09h4.091v1.273h-1.364v5.818H76zM64.454 43.09l-1.727 5-1.636-5h-1.364l-1.272 7.182h1.363l.818-4.546 1.455 4.455h1.273l1.545-4.546.727 4.546H67l-1.182-7.091zm-8.272 4.818h-2v-1.364h3.636v.274c-.09 1.272-.727 2.454-1.818 3.09-.545.273-1.182.455-1.818.455s-1.364-.091-2-.455c-.546-.273-1-.817-1.364-1.364-.363-.545-.545-1.272-.545-1.909 0-.909.363-1.818 1-2.454.727-.818 1.818-1.273 2.909-1.273.636 0 1.273.091 1.818.364.545.182 1 .545 1.364 1l-1 .909a2.9 2.9 0 0 0-2.182-1c-.727 0-1.364.273-1.818.727a2.48 2.48 0 0 0-.728 1.727c0 .637.273 1.273.728 1.728.454.454 1.09.728 1.818.728a2.8 2.8 0 0 0 1.182-.274c.363-.18.636-.545.818-.909"/></g><defs><clipPath id="a"><path fill="#fff" d="M32 21h90.909v40H32z"/></clipPath></defs></svg>